<svg width="158" height="158" viewBox="0 0 158 158" fill="none" xmlns="http://www.w3.org/2000/svg">
<path d="M73.642 2.39998C76.9126 0.324621 81.0874 0.324618 84.358 2.39998L86.8601 3.98778C89.1913 5.46708 92.0304 5.91674 94.7046 5.23023L97.575 4.49336C101.327 3.53022 105.297 4.82032 107.766 7.80476L109.655 10.0881C111.415 12.2153 113.977 13.5203 116.732 13.6938L119.69 13.88C123.555 14.1233 126.933 16.5772 128.359 20.1786L129.45 22.9339C130.467 25.5009 132.499 27.5335 135.066 28.5499L137.821 29.641C141.423 31.067 143.877 34.4445 144.12 38.3103L144.306 41.2679C144.48 44.0234 145.785 46.5846 147.912 48.3445L150.195 50.2336C153.18 52.7027 154.47 56.6732 153.507 60.425L152.77 63.2954C152.083 65.9696 152.533 68.8087 154.012 71.1399L155.6 73.642C157.675 76.9126 157.675 81.0874 155.6 84.358L154.012 86.8601C152.533 89.1913 152.083 92.0304 152.77 94.7046L153.507 97.575C154.47 101.327 153.18 105.297 150.195 107.766L147.912 109.655C145.785 111.415 144.48 113.977 144.306 116.732L144.12 119.69C143.877 123.555 141.423 126.933 137.821 128.359L135.066 129.45C132.499 130.467 130.467 132.499 129.45 135.066L128.359 137.821C126.933 141.423 123.555 143.877 119.69 144.12L116.732 144.306C113.977 144.48 111.415 145.785 109.655 147.912L107.766 150.195C105.297 153.18 101.327 154.47 97.575 153.507L94.7046 152.77C92.0304 152.083 89.1913 152.533 86.8601 154.012L84.358 155.6C81.0874 157.675 76.9126 157.675 73.642 155.6L71.1399 154.012C68.8087 152.533 65.9696 152.083 63.2954 152.77L60.425 153.507C56.6732 154.47 52.7027 153.18 50.2336 150.195L48.3445 147.912C46.5846 145.785 44.0234 144.48 41.2679 144.306L38.3103 144.12C34.4446 143.877 31.067 141.423 29.641 137.821L28.5499 135.066C27.5335 132.499 25.5009 130.467 22.9339 129.45L20.1786 128.359C16.5773 126.933 14.1233 123.555 13.88 119.69L13.6938 116.732C13.5203 113.977 12.2153 111.415 10.0881 109.655L7.80476 107.766C4.82033 105.297 3.53022 101.327 4.49336 97.575L5.23023 94.7046C5.91674 92.0304 5.46708 89.1913 3.98778 86.8601L2.39998 84.358C0.324621 81.0874 0.324618 76.9126 2.39998 73.642L3.98778 71.1399C5.46708 68.8087 5.91674 65.9696 5.23023 63.2954L4.49336 60.425C3.53022 56.6732 4.82032 52.7027 7.80475 50.2336L10.0881 48.3445C12.2153 46.5846 13.5203 44.0234 13.6938 41.2679L13.88 38.3103C14.1233 34.4446 16.5772 31.067 20.1786 29.641L22.9339 28.5499C25.5009 27.5335 27.5335 25.5009 28.5499 22.9339L29.641 20.1786C31.067 16.5773 34.4445 14.1233 38.3103 13.88L41.2679 13.6938C44.0234 13.5203 46.5846 12.2153 48.3445 10.0881L50.2336 7.80476C52.7027 4.82033 56.6732 3.53022 60.425 4.49336L63.2954 5.23023C65.9696 5.91674 68.8087 5.46708 71.1399 3.98778L73.642 2.39998Z" fill="#7EDAD2"/>
</svg>
